<svg width="1200" height="630" xmlns="http://www.w3.org/2000/svg">
  <rect width="1200" height="630" fill="#E5E5E5"/>
  <rect x="60" y="60" width="1080" height="510" rx="24" fill="#FFFFFF" filter="url(#shadow)"/>
  <rect x="90" y="90" width="1020" height="300" rx="16" fill="#2A2A2A"/>
  <text x="130" y="165" font-family="Georgia, serif" font-size="52" font-weight="700" fill="#FFFFFF">경주 가족여행</text>
  <text x="130" y="220" font-family="monospace" font-size="22" fill="rgba(255,255,255,0.65)">2026.02.19 — 02.24 / 5박 6일</text>
  <text x="130" y="280" font-family="monospace" font-size="18" fill="#E85D2A">D1 출발  D2 대릉원·황리단길  D3 불국사·석굴암</text>
  <text x="130" y="315" font-family="monospace" font-size="18" fill="#E85D2A">D4 대구마라톤  D5 보문단지  D6 국립박물관</text>
  <text x="130" y="360" font-family="monospace" font-size="16" fill="rgba(255,255,255,0.4)">FAMILY · FOOD · CULTURE · ADVENTURE</text>
  <rect x="90" y="420" width="200" height="48" rx="8" fill="#1A1A1A"/>
  <text x="140" y="451" font-family="monospace" font-size="16" font-weight="600" fill="#FFFFFF">일정 보기</text>
  <rect x="310" y="420" width="200" height="48" rx="8" fill="#E5E5E5"/>
  <text x="374" y="451" font-family="monospace" font-size="16" font-weight="600" fill="#666666">지도</text>
  <rect x="530" y="420" width="200" height="48" rx="8" fill="#E5E5E5"/>
  <text x="594" y="451" font-family="monospace" font-size="16" font-weight="600" fill="#666666">관리</text>
  <rect x="90" y="500" width="600" height="4" rx="2" fill="rgba(0,0,0,0.08)"/>
  <rect x="90" y="500" width="200" height="4" rx="2" fill="#E85D2A"/>
  <text x="880" y="548" font-family="Georgia, serif" font-size="28" font-weight="700" fill="#1A1A1A" text-anchor="end">Gyeongju</text>
  <text x="880" y="575" font-family="monospace" font-size="14" fill="#999999" text-anchor="end">gyeongju-trip.vercel.app</text>
  <defs>
    <filter id="shadow" x="-2%" y="-2%" width="104%" height="104%">
      <feDropShadow dx="0" dy="2" stdDeviation="12" flood-opacity="0.08"/>
    </filter>
  </defs>
</svg>